<svg id="Layer_1" height="512" viewBox="0 0 128 128" width="512" xmlns="http://www.w3.org/2000/svg" data-name="Layer 1"><path d="m92.927 98.368c0 21.945-17.79 15.857-39.735 15.857s-39.736 6.088-39.736-15.857 17.79-57.4 39.736-57.4 39.735 35.455 39.735 57.4z" fill="#66ba00"/><path d="m67.979 14.761s-7.765-3.963-15.644 0a15.987 15.987 0 0 1 -13.93 0l5.954 28.052s-.245 3.805 8.833 3.805 8.833-3.8 8.833-3.8z" fill="#9bdc05"/><circle cx="53.192" cy="83.166" fill="#ffd92d" r="19.643"/><rect fill="#ffd92d" height="7.917" rx="3.958" width="36.25" x="78.297" y="83.25"/><rect fill="#fcbe00" height="7.917" rx="3.958" width="36.25" x="78.297" y="91.167"/><rect fill="#ffd92d" height="7.917" rx="3.958" width="36.25" x="78.297" y="99.083"/><rect fill="#fcbe00" height="7.917" rx="3.958" width="36.25" x="78.297" y="107"/><g fill="#5a2b41"><path d="m28.72 56.1a1.751 1.751 0 0 0 2.46-.266 39.362 39.362 0 0 1 12.3-10.6 5.181 5.181 0 0 0 .358.429c1.683 1.794 4.829 2.7 9.352 2.7s7.67-.909 9.352-2.7a4.3 4.3 0 0 0 1.225-2.639l5.922-27.9a1.749 1.749 0 0 0 -.916-1.922 20.872 20.872 0 0 0 -13.686-1.334c-.019 0-.038.009-.057.013a18.145 18.145 0 0 0 -3.482 1.319 14.115 14.115 0 0 1 -12.309.027 1.75 1.75 0 0 0 -2.548 1.9l5.681 26.763a42.2 42.2 0 0 0 -13.918 11.751 1.751 1.751 0 0 0 .266 2.459zm24.4-39.777c.183-.092.366-.169.549-.251v10.036a1.75 1.75 0 1 0 3.5 0v-11.108a17.835 17.835 0 0 1 8.793.83l-5.65 26.619c-.049.23-.088.226-.05.407-.153.519-1.377 1.684-5.322 1.954v-7.01a1.75 1.75 0 0 0 -3.5 0v7.01c-3.889-.266-5.13-1.4-5.311-1.93 0-.024 0-.049 0-.074a.449.449 0 0 0 -.024-.226 1.712 1.712 0 0 0 -.043-.182l-5.287-24.892a17.291 17.291 0 0 0 12.346-1.181z"/><path d="m24.355 62.618a1.75 1.75 0 0 0 2.413-.555q.227-.366.461-.727a1.75 1.75 0 0 0 -2.946-1.891c-.162.253-.324.507-.483.762a1.75 1.75 0 0 0 .555 2.411z"/><path d="m71.434 113.2c-1.98-.064-4.049-.176-6.238-.3-3.839-.209-7.809-.424-12.006-.424s-8.17.215-12.011.425c-10.169.553-18.2.991-22.422-3-2.39-2.264-3.552-6.035-3.552-11.528 0-8.964 3.1-20.381 8.3-30.539a1.75 1.75 0 0 0 -3.116-1.594c-5.435 10.629-8.68 22.641-8.68 32.133 0 6.506 1.519 11.109 4.645 14.069 3.661 3.466 9.135 4.308 15.645 4.308 2.938 0 6.086-.172 9.374-.35 3.794-.207 7.717-.42 11.821-.42s8.023.213 11.816.42c2.209.12 4.3.233 6.314.3a1.75 1.75 0 1 0 .114-3.5z"/><path d="m53.19 61.772a21.394 21.394 0 1 0 10.48 40.048 1.75 1.75 0 0 0 -1.717-3.05 17.9 17.9 0 1 1 5.431-4.707 1.75 1.75 0 1 0 2.775 2.137 21.192 21.192 0 0 0 4.424-13.029 21.417 21.417 0 0 0 -21.393-21.399z"/><path d="m56.742 77.879a1.75 1.75 0 0 0 3.5 0 7.042 7.042 0 0 0 -5.3-6.811v-2.208a1.75 1.75 0 0 0 -3.5 0v2.216a7.026 7.026 0 0 0 0 13.607v6.817a3.526 3.526 0 0 1 -1.771-3.046 1.75 1.75 0 0 0 -3.5 0 7.043 7.043 0 0 0 5.271 6.8v2.216a1.75 1.75 0 0 0 3.5 0v-2.207a7.026 7.026 0 0 0 0-13.622v-6.825a3.523 3.523 0 0 1 1.8 3.063zm-7.073 0a3.526 3.526 0 0 1 1.771-3.046v6.092a3.526 3.526 0 0 1 -1.771-3.046zm7.073 10.573a3.523 3.523 0 0 1 -1.8 3.063v-6.125a3.52 3.52 0 0 1 1.8 3.062z"/><path d="m96.42 92.917h.892a1.75 1.75 0 0 0 0-3.5h-.892a1.75 1.75 0 1 0 0 3.5z"/><path d="m114.691 91.167a5.7 5.7 0 0 0 -4.1-9.667h-18.563c-4.194-14.6-12.476-28.186-21.757-35.6a1.75 1.75 0 0 0 -2.186 2.734c8.542 6.822 16.215 19.302 20.295 32.866h-6.127a5.7 5.7 0 0 0 -4.1 9.667 5.683 5.683 0 0 0 0 7.916 5.684 5.684 0 0 0 0 7.917 5.7 5.7 0 0 0 4.1 9.667h28.334a5.7 5.7 0 0 0 4.1-9.667 5.687 5.687 0 0 0 0-7.917 5.685 5.685 0 0 0 0-7.916zm-32.438-6.167h28.334a2.209 2.209 0 0 1 0 4.417h-7.275a1.75 1.75 0 1 0 0 3.5h7.275a2.208 2.208 0 0 1 0 4.416h-28.334a2.208 2.208 0 1 1 0-4.416h8a1.75 1.75 0 0 0 0-3.5h-8a2.209 2.209 0 0 1 0-4.417zm30.547 18.042a2.21 2.21 0 0 1 -2.208 2.208h-28.339a2.209 2.209 0 0 1 0-4.417h28.334a2.211 2.211 0 0 1 2.213 2.209zm-2.208 10.125h-28.339a2.209 2.209 0 0 1 0-4.417h28.334a2.209 2.209 0 0 1 0 4.417z"/></g></svg>