<svg id="Layer_1" height="512" viewBox="0 0 128 128" width="512" xmlns="http://www.w3.org/2000/svg" data-name="Layer 1"><path d="m93.751 115h-77.666v-102h63.583l14.083 14.083z" fill="#ebebf0"/><path d="m93.751 27.083h-14.083v-14.083z" fill="#ebebf0"/><circle cx="54.918" cy="43.633" fill="#ffd92d" r="20.367"/><path d="m93.751 61.149c-1.851 3.964-10.451 6.507-18.166 3.977v23s0 7.3 8.15 11.592c8.747 4.608 10.016 7.219 10.016 7.219s1.27-2.611 10.017-7.219c8.15-4.293 8.15-11.592 8.15-11.592v-23c-7.718 2.53-16.312-.013-18.167-3.977z" fill="#64e0db"/><g fill="#5a2b41"><path d="m35.667 14.75h.75a1.75 1.75 0 0 0 0-3.5h-.75a1.75 1.75 0 0 0 0 3.5z"/><path d="m93.75 113.25h-75.917v-98.5h10a1.75 1.75 0 0 0 0-3.5h-11.75a1.75 1.75 0 0 0 -1.75 1.75v102a1.75 1.75 0 0 0 1.75 1.75h77.667a1.75 1.75 0 0 0 0-3.5z"/><path d="m38.927 56.369a1.751 1.751 0 0 0 .485-2.427 18.627 18.627 0 1 1 4.226 4.5 1.751 1.751 0 0 0 -2.123 2.784 21.921 21.921 0 0 0 13.4 4.521 22.112 22.112 0 1 0 -18.415-9.864 1.749 1.749 0 0 0 2.427.486z"/><path d="m51.2 49.115a1.75 1.75 0 0 0 -3.5 0 7.238 7.238 0 0 0 5.466 7v2.347a1.75 1.75 0 1 0 3.5 0v-2.335a7.221 7.221 0 0 0 0-14.025v-7.233a3.718 3.718 0 0 1 2 3.283 1.75 1.75 0 0 0 3.5 0 7.238 7.238 0 0 0 -5.5-7.012v-2.34a1.75 1.75 0 0 0 -3.5 0v2.347a7.22 7.22 0 0 0 0 14.008v7.225a3.719 3.719 0 0 1 -1.966-3.265zm7.463 0a3.718 3.718 0 0 1 -2 3.283v-6.567a3.719 3.719 0 0 1 2.001 3.284zm-7.463-10.963a3.719 3.719 0 0 1 1.966-3.266v6.533a3.721 3.721 0 0 1 -1.966-3.267z"/><path d="m28.587 72.174a1.75 1.75 0 0 0 1.75 1.75h36.58a1.75 1.75 0 0 0 0-3.5h-36.58a1.75 1.75 0 0 0 -1.75 1.75z"/><path d="m30.337 84.417h21.916a1.75 1.75 0 1 0 0-3.5h-21.916a1.75 1.75 0 0 0 0 3.5z"/><path d="m68.667 93.16a1.749 1.749 0 0 0 -1.75-1.75h-36.58a1.75 1.75 0 0 0 0 3.5h36.58a1.75 1.75 0 0 0 1.75-1.75z"/><path d="m30.337 101.9a1.75 1.75 0 0 0 0 3.5h21.916a1.75 1.75 0 0 0 0-3.5z"/><path d="m112.943 63.709a1.754 1.754 0 0 0 -1.571-.246c-6.994 2.293-14.21-.059-15.872-2.783v-33.6a1.75 1.75 0 0 0 -.513-1.237l-14.087-14.08a1.75 1.75 0 0 0 -1.237-.513h-36a1.75 1.75 0 0 0 0 3.5h34.25v12.333a1.749 1.749 0 0 0 1.75 1.75h6.541a1.75 1.75 0 0 0 0-3.5h-4.787v-8.108l10.583 10.583v32.873c-1.662 2.723-8.877 5.076-15.872 2.782a1.751 1.751 0 0 0 -2.3 1.663v23c0 .341.1 8.41 9.085 13.141 7.715 4.063 9.251 6.437 9.259 6.436a1.758 1.758 0 0 0 1.555 1.02 1.689 1.689 0 0 0 1.555-.949c.015-.023 1.5-2.4 9.3-6.507 8.981-4.731 9.085-12.8 9.085-13.141v-4.459a1.75 1.75 0 0 0 -3.5 0v4.444c0 .257-.165 6.342-7.216 10.056a41.621 41.621 0 0 0 -9.2 6.095 41.621 41.621 0 0 0 -9.2-6.095c-7.051-3.714-7.213-9.8-7.216-10.044v-20.723c6.248 1.29 13.052-.148 16.417-3.356 3.365 3.208 10.167 4.648 16.417 3.356v3.6a1.75 1.75 0 0 0 3.5 0v-5.874a1.748 1.748 0 0 0 -.726-1.417z"/><path d="m111.917 74.938a1.75 1.75 0 0 0 -1.75 1.75v.645a1.75 1.75 0 0 0 3.5 0v-.645a1.75 1.75 0 0 0 -1.75-1.75z"/><path d="m99.717 76.24-6.4 8-3.037-1.72a1.75 1.75 0 1 0 -1.726 3.044l4.333 2.458a1.748 1.748 0 0 0 2.229-.429l7.333-9.166a1.75 1.75 0 1 0 -2.732-2.187z"/></g></svg>