<svg id="Layer_1" height="512" viewBox="0 0 128 128" width="512" xmlns="http://www.w3.org/2000/svg" data-name="Layer 1"><path d="m60.085 68.467 3.016-.632a12.088 12.088 0 0 0 9.374-9.482l.683-3.451a10.162 10.162 0 0 1 5.868-7.328 2.489 2.489 0 0 1 3.493 2.278v20.889l-3.031 32.136h-19.4z" fill="#ffd6c9"/><rect fill="#f0c4af" height="8.034" rx="4.017" width="32.039" x="54.839" y="70.741"/><rect fill="#f0c4af" height="8.034" rx="4.017" width="32.039" x="54.839" y="86.809"/><rect fill="#f0c4af" height="8.034" rx="4.017" width="26.832" x="54.839" y="94.843"/><rect fill="#f0c4af" height="8.034" rx="4.017" width="35.793" x="51.085" y="78.775"/><path d="m51.085 41.861 2.774 5.621 6.204.901-4.489 4.376 1.059 6.179-5.548-2.917-5.549 2.917 1.06-6.179-4.489-4.376 6.203-.901z" fill="#ffd92d"/><path d="m79.09 21.2 2.407 4.876 5.381.782-3.894 3.796.919 5.359-4.813-2.53-4.813 2.53.919-5.359-3.894-3.796 5.381-.782z" fill="#ffd92d"/><path d="m104.9 45.26 3.121 6.325 6.98 1.014-5.05 4.924 1.192 6.952-6.243-3.283-6.244 3.283 1.193-6.952-5.051-4.924 6.98-1.014z" fill="#fcbe00"/><rect fill="#ffd6c9" height="8.034" rx="4.017" width="19.327" x="75.471" y="70.741"/><rect fill="#ffd6c9" height="8.034" rx="4.017" width="19.327" x="75.471" y="86.809"/><rect fill="#ffd6c9" height="8.034" rx="4.017" width="16.186" x="75.471" y="94.843"/><rect fill="#ffd6c9" height="8.034" rx="4.017" width="21.592" x="73.206" y="78.775"/><path d="m13.001 68.467h38.083v38.333h-38.083z" fill="#537982"/><path d="m51.085 68.467h9v38.333h-9z" fill="#ebebf0"/><g fill="#5a2b41"><path d="m13 70.217h1.083a1.75 1.75 0 0 0 0-3.5h-1.083a1.75 1.75 0 0 0 0 3.5z"/><path d="m60.083 78.583a1.75 1.75 0 0 0 -1.75 1.75v.75a1.75 1.75 0 0 0 3.5 0v-.75a1.749 1.749 0 0 0 -1.75-1.75z"/><path d="m60.083 85.917a1.75 1.75 0 0 0 -1.75 1.75v17.384h-45.333a1.75 1.75 0 0 0 0 3.5h47.083a1.749 1.749 0 0 0 1.75-1.75v-19.134a1.749 1.749 0 0 0 -1.75-1.75z"/><path d="m74.189 58.692.684-3.451a8.42 8.42 0 0 1 4.857-6.065.738.738 0 0 1 1.038.676v14.148a1.75 1.75 0 0 0 3.5 0v-14.148a4.238 4.238 0 0 0 -5.95-3.878 11.924 11.924 0 0 0 -6.879 8.588l-.683 3.451a10.315 10.315 0 0 1 -8.016 8.108l-2.839.6h-39.984a1.75 1.75 0 0 0 0 3.5h29.416v29.45a1.75 1.75 0 0 0 3.5 0v-29.454h5.5v3.541a1.75 1.75 0 1 0 3.5 0v-3.87l1.625-.341a13.812 13.812 0 0 0 10.731-10.855z"/><path d="m90.779 68.991h-11.293a5.756 5.756 0 0 0 -4.954 8.7 5.76 5.76 0 0 0 0 10.194 5.735 5.735 0 0 0 .825 6.954 5.751 5.751 0 0 0 -1.172 6.284h-7.6a1.75 1.75 0 0 0 0 3.5h21.054a5.758 5.758 0 0 0 5.127-8.394 5.753 5.753 0 0 0 2.143-9.425 5.745 5.745 0 0 0 0-8.032 5.761 5.761 0 0 0 -4.13-9.785zm2.267 13.8a2.27 2.27 0 0 1 -2.267 2.267h-13.557a2.267 2.267 0 0 1 0-4.534h13.557a2.27 2.27 0 0 1 2.267 2.268zm-13.56-10.3h11.293a2.267 2.267 0 1 1 0 4.534h-11.293a2.267 2.267 0 0 1 0-4.534zm8.153 28.636h-8.153a2.267 2.267 0 0 1 0-4.534h8.153a2.267 2.267 0 0 1 0 4.534zm3.14-8.034h-11.293a2.267 2.267 0 0 1 0-4.534h11.293a2.267 2.267 0 1 1 0 4.534z"/><path d="m44.714 53.37-.9 5.272a1.749 1.749 0 0 0 2.539 1.844l4.73-2.486 4.734 2.488a1.748 1.748 0 0 0 2.539-1.844l-.9-5.272 3.83-3.733a1.75 1.75 0 0 0 -.971-2.985l-5.292-.769-2.367-4.8a1.75 1.75 0 0 0 -3.139 0l-2.367 4.8-5.293.769a1.75 1.75 0 0 0 -.97 2.985zm3.847-4.156a1.746 1.746 0 0 0 1.317-.957l1.2-2.442 1.2 2.442a1.75 1.75 0 0 0 1.318.957l2.694.391-1.949 1.9a1.745 1.745 0 0 0 -.5 1.549l.46 2.683-2.401-1.265a1.751 1.751 0 0 0 -1.629 0l-2.41 1.266.46-2.683a1.748 1.748 0 0 0 -.5-1.549l-1.95-1.9z"/><path d="m73.314 31.265-.763 4.452a1.75 1.75 0 0 0 2.539 1.845l4-2.1 4 2.1a1.75 1.75 0 0 0 2.539-1.845l-.764-4.452 3.235-3.155a1.75 1.75 0 0 0 -.971-2.984l-4.471-.649-2-4.052a1.749 1.749 0 0 0 -3.138 0l-2.408 4.875a1.75 1.75 0 0 0 3.139 1.549l.838-1.7.837 1.7a1.75 1.75 0 0 0 1.318.957l1.871.272-1.354 1.322a1.75 1.75 0 0 0 -.5 1.549l.319 1.864-1.68-.879a1.751 1.751 0 0 0 -1.629 0l-1.674.88.319-1.865a1.751 1.751 0 0 0 -.5-1.549l-3.894-3.8a1.75 1.75 0 0 0 -2.443 2.506z"/><path d="m115.252 50.867-6.07-.882-2.714-5.5a1.751 1.751 0 0 0 -3.139 0l-2.715 5.5-6.069.882a1.751 1.751 0 0 0 -.97 2.985l4.393 4.282-1.037 6.045a1.749 1.749 0 0 0 2.539 1.844l5.43-2.853 5.429 2.853a1.749 1.749 0 0 0 2.539-1.844l-1.192-6.952a1.75 1.75 0 1 0 -3.449.591l.592 3.457-3.1-1.631a1.751 1.751 0 0 0 -1.629 0l-3.105 1.631.593-3.457a1.748 1.748 0 0 0 -.5-1.548l-2.511-2.449 3.47-.5a1.747 1.747 0 0 0 1.318-.957l1.552-3.145 1.552 3.145a1.747 1.747 0 0 0 1.318.957l6.98 1.014a1.75 1.75 0 0 0 .5-3.463z"/></g></svg>