<svg id="Layer_1" height="512" viewBox="0 0 128 128" width="512" xmlns="http://www.w3.org/2000/svg" data-name="Layer 1"><path d="m115.004 105.57-65.984.009-.011-83.149 54.243-.007 11.742 11.742z" fill="#ebebf0"/><path d="m12.999 61.666h16.841v33.5h-16.841z" fill="#537982"/><path d="m49.016 69.337 8.166-10.168a5.182 5.182 0 0 1 4.04-1.937h1.656a1.609 1.609 0 0 1 1.443 2.32l-7.052 14.3a20.007 20.007 0 0 1 -8.369 8.72l-14.393 7.847h-4.667v-28.749l10.146-9.492a10.478 10.478 0 0 1 7.158-2.827h1.868z" fill="#ffd6c9"/><path d="m114.993 34.165h-11.741v-11.742z" fill="#ebebf0"/><path d="m64.489 40h36.262v10.75h-36.262z" fill="#9bdc05"/><g fill="#5a2b41"><path d="m115 103.82-64.234.009v-13.411a1.75 1.75 0 0 0 -3.5 0v15.16a1.751 1.751 0 0 0 1.75 1.75l65.984-.008a1.75 1.75 0 0 0 0-3.5z"/><path d="m115 95.375a1.749 1.749 0 0 1 1.749 1.749v1.376a1.75 1.75 0 0 1 -1.75 1.75 1.749 1.749 0 0 1 -1.749-1.749v-1.376a1.75 1.75 0 0 1 1.75-1.75z"/><path d="m78.916 24.176h22.584v9.992a1.75 1.75 0 0 0 1.75 1.75h4.417a1.75 1.75 0 0 0 0-3.5h-2.667v-5.77l8.242 8.242.008 54.61a1.75 1.75 0 0 0 3.5 0l-.008-55.334a1.746 1.746 0 0 0 -.513-1.237l-11.742-11.743a1.746 1.746 0 0 0 -1.237-.513h-24.334a1.75 1.75 0 0 0 0 3.5z"/><path d="m71 24.177h.751a1.75 1.75 0 0 0 0-3.5h-.751a1.75 1.75 0 0 0 0 3.5z"/><path d="m58.837 74.627 7.052-14.3a3.358 3.358 0 0 0 -3.012-4.844h-1.656a6.9 6.9 0 0 0 -5.4 2.591l-5.052 6.292v-15.014-25.171h13.563a1.75 1.75 0 0 0 0-3.5h-15.313a1.751 1.751 0 0 0 -1.75 1.751v25.17h-.117a12.181 12.181 0 0 0 -8.354 3.3l-9.637 9.016h-16.161a1.75 1.75 0 0 0 0 3.5h15.089v30h-15.089a1.75 1.75 0 0 0 0 3.5h16.839a1.75 1.75 0 0 0 1.75-1.75v-32.739l9.591-8.973a8.7 8.7 0 0 1 5.963-2.356h.118v18.237a1.75 1.75 0 0 0 3.114 1.1l8.166-10.168a3.417 3.417 0 0 1 2.676-1.283h1.428l-6.945 14.093a18.164 18.164 0 0 1 -7.637 7.956l-12.709 6.927a1.751 1.751 0 1 0 1.676 3.074l12.706-6.928a21.644 21.644 0 0 0 9.101-9.481z"/><path d="m102.5 40a1.75 1.75 0 0 0 -1.75-1.75h-36.263a1.751 1.751 0 0 0 -1.75 1.75v10.75a1.751 1.751 0 0 0 1.75 1.75h36.263a1.75 1.75 0 0 0 1.75-1.75zm-3.5 9h-32.763v-7.25h32.763z"/><path d="m100.75 59.916h-30.5a1.75 1.75 0 0 0 0 3.5h30.5a1.75 1.75 0 0 0 0-3.5z"/><path d="m100.75 67.531h-36.431a1.75 1.75 0 0 0 0 3.5h36.431a1.75 1.75 0 0 0 0-3.5z"/><path d="m100.75 75.145h-36.431a1.75 1.75 0 0 0 0 3.5h36.431a1.75 1.75 0 0 0 0-3.5z"/><path d="m100.75 82.76h-36.431a1.75 1.75 0 0 0 0 3.5h36.431a1.75 1.75 0 0 0 0-3.5z"/><path d="m100.75 90.375h-18.131a1.75 1.75 0 0 0 0 3.5h18.131a1.75 1.75 0 0 0 0-3.5z"/></g></svg>