<svg xmlns="http://www.w3.org/2000/svg" width="110" height="111" viewBox="0 0 110 111">
    <defs>
        <linearGradient id="a" x1="50.003%" x2="50.003%" y1="2.842%" y2="108.456%">
            <stop offset="0%" stop-color="#0087E0"/>
            <stop offset="100%" stop-color="#4DC2F4"/>
        </linearGradient>
        <linearGradient id="b" x1="50.003%" x2="50.003%" y1="-.185%" y2="99.225%">
            <stop offset="0%" stop-color="#0146C0"/>
            <stop offset="100%" stop-color="#0079DD"/>
        </linearGradient>
        <linearGradient id="c" x1="50.003%" x2="50.003%" y1="1.838%" y2="99.312%">
            <stop offset="0%" stop-color="#0A38BA"/>
            <stop offset="100%" stop-color="#0067D1"/>
        </linearGradient>
        <linearGradient id="d" x1="50%" x2="50%" y1="7.6%" y2="110.739%">
            <stop offset="0%" stop-color="#042EAE"/>
            <stop offset="100%" stop-color="#005DCE"/>
        </linearGradient>
        <linearGradient id="e" x1="50%" x2="50%" y1="3.075%" y2="115.603%">
            <stop offset="0%" stop-color="#86E0F8"/>
            <stop offset="100%" stop-color="#58B9ED"/>
        </linearGradient>
        <linearGradient id="f" x1="50.012%" x2="50.012%" y1=".107%" y2="98.07%">
            <stop offset="0%" stop-color="#FFF"/>
            <stop offset="100%" stop-color="#97EAFD"/>
        </linearGradient>
    </defs>
    <g fill="none" fill-rule="nonzero">
        <path fill="url(#a)" d="M6.921 3.912A13.18 13.18 0 0 0 .33 15.33v2.754h68.856V15.33c0-4.708-2.513-9.06-6.592-11.418L56.122.176H13.389L6.921 3.912z" transform="translate(20.24 10.56)"/>
        <path fill="#0075D7" d="M33.634 10.736l-1.945 1.126H78.31l-1.945-1.126z"/>
        <path fill="url(#b)" d="M.33.04h68.856v17.904H.33z" transform="translate(20.24 28.6)"/>
        <path fill="#0740BD" d="M20.57 28.64h68.856v1.346H20.57z"/>
        <path fill="url(#c)" d="M.33.343V4.22c0 4.708 2.512 9.06 6.591 11.418l4.523 2.613h46.627l4.523-2.613A13.18 13.18 0 0 0 69.186 4.22V.343H.33z" transform="translate(20.24 46.2)"/>
        <path fill="#0617A3" d="M20.57 46.543h68.856v1.346H20.57z"/>
        <path fill="url(#d)" d="M11.449 64.451l16.72 9.654a13.186 13.186 0 0 0 13.182 0l16.72-9.654H11.45z" transform="translate(20.24)"/>
        <path fill="url(#e)" d="M13.394 10.736h42.732L41.351 2.204a13.186 13.186 0 0 0-13.182 0l-14.775 8.532z" transform="translate(20.24)"/>
        <path fill="#0617A3" d="M75.984 65.793l2.327-1.342H31.69l2.327 1.342z"/>
        <g>
            <path fill="#0617A3" d="M44.414 46.543v15.603H51.572c7.727 0 14.014-6.288 14.014-14.014v-1.589H44.414z"/>
            <path fill="#0740BD" d="M44.414 29.436h21.173v17.107H44.414z"/>
            <path fill="#0075D7" d="M65.586 28.64V14.648h-8.69c-6.881 0-12.482 5.6-12.482 12.482v1.514h21.172v-.004z"/>
            <path fill="url(#f)" d="M7.572 46.13H1.91V12.606c0-6.068 4.919-10.982 10.982-10.982h7.194v31.988c.004 6.912-5.601 12.518-12.514 12.518z" transform="translate(44 14.52)"/>
        </g>
        <path fill="#0A197D" d="M2.97 85.1h2.235v21.864a2.969 2.969 0 0 1-2.97 2.97H0V88.07a2.972 2.972 0 0 1 2.97-2.97zm52.25 20.592c-.607.106-1.201.163-1.773.163-1.197 0-1.989-.334-2.385-1.003-.396-.669-.59-1.566-.59-2.688v-6.631h4.066a2.35 2.35 0 0 0 2.35-2.35V91.09h-6.416v-5.557l-5.341.858v15.84c0 1.218.114 2.327.339 3.33.228 1.004.629 1.857 1.2 2.561.573.704 1.338 1.254 2.293 1.65.955.396 2.16.59 3.621.59 1.149 0 2.117-.097 2.904-.286.788-.19 1.505-.418 2.152-.682l-.752-4.158a8.756 8.756 0 0 1-1.668.457zm-13.834-4.602c-.444-.488-1.047-.942-1.808-1.364-.766-.422-1.734-.85-2.904-1.285a17.024 17.024 0 0 1-1.417-.594 5.897 5.897 0 0 1-.88-.506c-.215-.154-.356-.317-.431-.484a1.457 1.457 0 0 1-.106-.572c0-.933.836-1.399 2.508-1.399.907 0 1.725.084 2.456.25.73.168 1.403.357 2.024.573l.932-4.158c-.62-.238-1.456-.462-2.508-.665a17.419 17.419 0 0 0-3.295-.303c-2.293 0-4.097.515-5.412 1.54-1.316 1.03-1.971 2.424-1.971 4.193 0 .906.132 1.685.396 2.328a4.899 4.899 0 0 0 1.108 1.667c.48.467 1.056.867 1.738 1.201.682.335 1.44.656 2.275.968 1.074.405 1.875.77 2.403 1.092.523.32.787.7.787 1.13 0 .55-.202.92-.607 1.114-.405.193-1.1.286-2.077.286-.933 0-1.874-.102-2.829-.304a17.61 17.61 0 0 1-2.794-.84l-.898 4.338c.432.194 1.202.431 2.31.717 1.114.286 2.504.431 4.176.431 2.556 0 4.532-.475 5.931-1.43 1.4-.954 2.095-2.358 2.095-4.22 0-.787-.088-1.478-.269-2.072a4.173 4.173 0 0 0-.933-1.632zM23.88 93.06c-.62-.766-1.465-1.355-2.526-1.773-1.065-.418-2.398-.63-3.995-.63-1.575 0-3.084.115-4.514.34-1.435.228-2.605.47-3.512.734v18.207h2.988a2.35 2.35 0 0 0 2.35-2.35v-12.2c.334-.049.717-.088 1.148-.128.431-.035.836-.053 1.219-.053 1.24 0 2.09.357 2.543 1.074.453.717.682 1.936.682 3.656v10.001h2.992a2.35 2.35 0 0 0 2.35-2.35v-8.293c0-1.29-.132-2.46-.396-3.511-.264-1.052-.709-1.963-1.33-2.724zm85.369 12.184a9.102 9.102 0 0 1-1.668.448c-.607.106-1.201.163-1.773.163-1.197 0-1.989-.334-2.385-1.003-.396-.669-.59-1.566-.59-2.688v-6.631h4.066a2.35 2.35 0 0 0 2.35-2.35V91.09h-6.416v-5.557l-5.341.858v15.84c0 1.218.114 2.327.339 3.33.228 1.004.629 1.857 1.2 2.561.573.704 1.338 1.254 2.293 1.65.955.396 2.16.59 3.621.59 1.149 0 2.117-.097 2.904-.286.788-.19 1.505-.418 2.152-.682l-.752-4.15zM73.84 95.102c.264.954.396 2.02.396 3.19v11.11c-.766.167-1.826.365-3.19.59-1.364.228-3.01.338-4.946.338-1.219 0-2.323-.106-3.313-.321-.99-.216-1.848-.568-2.56-1.056a4.841 4.841 0 0 1-1.65-1.919c-.384-.787-.573-1.755-.573-2.904 0-1.1.22-2.028.665-2.794a5.077 5.077 0 0 1 1.773-1.826c.739-.453 1.588-.783 2.543-.985a14.297 14.297 0 0 1 2.974-.304c.691 0 1.307.031 1.848.088.537.062.973.137 1.307.233v-.501c0-.907-.273-1.637-.823-2.187-.55-.55-1.504-.823-2.868-.823-.907 0-1.804.066-2.689.198-.884.132-1.65.317-2.292.555l-.682-4.3c.308-.096.7-.197 1.166-.303a21.56 21.56 0 0 1 1.522-.286c.55-.083 1.131-.154 1.738-.215a18.367 18.367 0 0 1 1.848-.088c1.575 0 2.891.18 3.943.536 1.051.357 1.892.872 2.525 1.54.625.665 1.074 1.479 1.338 2.434zm-4.735 6.916a9.726 9.726 0 0 0-.968-.145 10.604 10.604 0 0 0-2.6.018 3.737 3.737 0 0 0-1.166.339 1.99 1.99 0 0 0-.788.682c-.193.286-.286.646-.286 1.073 0 .836.282 1.417.84 1.738.56.321 1.334.484 2.31.484.524 0 1.026-.013 1.506-.035.48-.022.858-.062 1.148-.106v-4.048h.004zM92.37 93.06c-.62-.766-1.465-1.355-2.525-1.773-1.065-.418-2.398-.63-3.996-.63-1.575 0-3.084.115-4.514.34-1.434.228-2.605.47-3.511.734v18.207h2.992a2.35 2.35 0 0 0 2.35-2.35v-12.2c.334-.049.717-.088 1.148-.128.431-.035.836-.053 1.219-.053 1.24 0 2.09.357 2.543 1.074.453.717.682 1.936.682 3.656v10.001h2.992a2.35 2.35 0 0 0 2.35-2.35v-8.293c0-1.29-.133-2.46-.397-3.511-.272-1.052-.712-1.963-1.333-2.724z"/>
    </g>
</svg>
