<?xml version="1.0" encoding="utf-8"?>
<!-- Generator: Adobe Illustrator 23.0.3, SVG Export Plug-In . SVG Version: 6.00 Build 0)  -->
<svg version="1.1" id="Layer_1" xmlns="http://www.w3.org/2000/svg" xmlns:xlink="http://www.w3.org/1999/xlink" x="0px" y="0px"
	 viewBox="0 0 1100 304" style="enable-background:new 0 0 1100 304;" xml:space="preserve">
<style type="text/css">
	.st0{fill:url(#SVGID_1_);}
	.st1{fill:#0075D7;}
	.st2{fill:url(#SVGID_2_);}
	.st3{fill:#0740BD;}
	.st4{fill:url(#SVGID_3_);}
	.st5{fill:#0617A3;}
	.st6{fill:url(#SVGID_4_);}
	.st7{fill:url(#SVGID_5_);}
	.st8{fill:url(#main_1_);}
	.st9{fill:#0A197D;}
</style>
<g>
	<g>
		<g id="Background_3_">
			<g>
				<linearGradient id="SVGID_1_" gradientUnits="userSpaceOnUse" x1="174.8889" y1="53.9716" x2="174.8889" y2="122.6763">
					<stop  offset="0" style="stop-color:#0087E0"/>
					<stop  offset="1" style="stop-color:#4DC2F4"/>
				</linearGradient>
				<path class="st0" d="M73.77,65.7c-14.82,8.55-23.94,24.36-23.94,41.47v10h250.13v-10c0-17.11-9.13-32.92-23.94-41.47
					L252.5,52.12H97.27L73.77,65.7z"/>
				<polygon class="st1" points="97.27,52.12 90.2,56.21 259.58,56.21 252.5,52.12 				"/>
			</g>
			<g>
				<linearGradient id="SVGID_2_" gradientUnits="userSpaceOnUse" x1="174.8889" y1="117.0395" x2="174.8889" y2="181.6922">
					<stop  offset="0" style="stop-color:#0146C0"/>
					<stop  offset="1" style="stop-color:#0079DD"/>
				</linearGradient>
				<rect x="49.83" y="117.16" class="st2" width="250.13" height="65.04"/>
				<rect x="49.83" y="117.16" class="st3" width="250.13" height="4.88"/>
			</g>
			<g>
				<linearGradient id="SVGID_3_" gradientUnits="userSpaceOnUse" x1="174.8889" y1="183.3922" x2="174.8889" y2="246.8013">
					<stop  offset="0" style="stop-color:#0A38BA"/>
					<stop  offset="1" style="stop-color:#0067D1"/>
				</linearGradient>
				<path class="st4" d="M49.83,182.2v14.08c0,17.11,9.13,32.92,23.94,41.47l16.43,9.49h169.37l16.43-9.49
					c14.82-8.55,23.94-24.36,23.94-41.47V182.2H49.83z"/>
				<rect x="49.83" y="182.2" class="st5" width="250.13" height="4.88"/>
			</g>
			<g>
				<linearGradient id="SVGID_4_" gradientUnits="userSpaceOnUse" x1="174.8889" y1="250.4018" x2="174.8889" y2="293.1848">
					<stop  offset="0" style="stop-color:#042EAE"/>
					<stop  offset="1" style="stop-color:#005DCE"/>
				</linearGradient>
				<path class="st6" d="M90.2,247.24l60.74,35.07c14.82,8.55,33.07,8.55,47.88,0l60.74-35.07H90.2z"/>
			</g>
			<linearGradient id="SVGID_5_" gradientUnits="userSpaceOnUse" x1="174.8889" y1="15.8681" x2="174.8889" y2="57.9595">
				<stop  offset="0" style="stop-color:#86E0F8"/>
				<stop  offset="1" style="stop-color:#58B9ED"/>
			</linearGradient>
			<path class="st7" d="M97.27,52.12H252.5l-53.67-30.99c-14.82-8.55-33.07-8.55-47.88,0L97.27,52.12z"/>
			<polygon class="st5" points="251.12,252.13 259.58,247.24 90.2,247.24 98.66,252.13 			"/>
		</g>
		<g>
			<g id="Outline-logo_3_">
				<path class="st5" d="M134.05,182.2v55.36v5.78h5.78h21.84c29.81,0,54.06-24.25,54.06-54.06v-7.08H134.05z"/>
				<rect x="134.05" y="117.16" class="st3" width="81.68" height="65.04"/>
				<path class="st1" d="M215.73,117.16V65.88v-5.78h-5.78H182.2c-26.55,0-48.15,21.6-48.15,48.15v8.91H215.73z"/>
			</g>
			<linearGradient id="main_1_" gradientUnits="userSpaceOnUse" x1="174.8889" y1="66.0698" x2="174.8889" y2="234.2506">
				<stop  offset="0" style="stop-color:#FFFFFF"/>
				<stop  offset="1" style="stop-color:#97EAFD"/>
			</linearGradient>
			<path id="main_3_" class="st8" d="M161.67,237.56h-21.84V108.26c0-23.4,18.97-42.37,42.37-42.37h27.75v123.4
				C209.95,215.95,188.33,237.56,161.67,237.56z"/>
		</g>
	</g>
	<path id="instant-logo_3_" class="st9" d="M385.92,73.14h13.87v135.63c0,10.18-8.25,18.44-18.44,18.44h-13.87V91.57
		C367.49,81.39,375.74,73.14,385.92,73.14z M515.62,122.49c-3.86-4.74-9.08-8.41-15.67-11.01c-6.6-2.59-14.86-3.89-24.79-3.89
		c-9.78,0-19.12,0.71-28.01,2.11c-8.89,1.41-16.16,2.93-21.79,4.56V227.2h18.55c8.05,0,14.57-6.52,14.57-14.57v-75.69
		c2.07-0.3,4.45-0.56,7.11-0.78c2.67-0.22,5.18-0.33,7.56-0.33c7.7,0,12.97,2.22,15.78,6.67c2.81,4.45,4.23,12.01,4.23,22.68v62.03
		h18.55c8.05,0,14.57-6.52,14.57-14.57v-51.45c0-8-0.82-15.26-2.45-21.79C522.21,132.87,519.47,127.24,515.62,122.49z
		 M624.22,172.31c-2.74-3.03-6.48-5.85-11.23-8.47c-4.75-2.61-10.75-5.27-18.01-7.96c-3.56-1.34-6.49-2.57-8.78-3.7
		c-2.3-1.12-4.11-2.16-5.45-3.13c-1.33-0.96-2.22-1.96-2.67-3c-0.44-1.03-0.67-2.22-0.67-3.56c0-5.78,5.18-8.67,15.56-8.67
		c5.63,0,10.71,0.52,15.23,1.56c4.52,1.04,8.71,2.22,12.56,3.55l5.78-25.79c-3.85-1.48-9.04-2.85-15.56-4.11
		c-6.52-1.26-13.34-1.89-20.45-1.89c-14.23,0-25.42,3.19-33.57,9.56c-8.15,6.37-12.23,15.04-12.23,26.01
		c0,5.63,0.81,10.45,2.45,14.45c1.63,4,3.92,7.45,6.89,10.34c2.96,2.89,6.56,5.38,10.78,7.45c4.23,2.08,8.93,4.08,14.12,6
		c6.67,2.52,11.63,4.78,14.89,6.78c3.26,2,4.89,4.33,4.89,7c0,3.41-1.26,5.71-3.78,6.89c-2.52,1.19-6.82,1.78-12.89,1.78
		c-5.78,0-11.64-0.63-17.56-1.89c-5.93-1.26-11.71-3-17.34-5.23l-5.56,26.9c2.67,1.19,7.45,2.67,14.34,4.45
		c6.89,1.78,15.52,2.67,25.9,2.67c15.86,0,28.12-2.96,36.79-8.87c8.67-5.92,13.01-14.64,13.01-26.18c0-4.88-0.56-9.17-1.67-12.86
		C628.89,178.7,626.96,175.34,624.22,172.31z M710.03,200.86c-3.78,0.67-7.45,1-11,1c-7.41,0-12.34-2.07-14.78-6.22
		c-2.45-4.15-3.67-9.7-3.67-16.67v-41.13h25.22c8.05,0,14.57-6.52,14.57-14.57v-12.99h-39.8V75.8l-33.12,5.34v98.26
		c0,7.56,0.7,14.45,2.11,20.67c1.41,6.22,3.89,11.53,7.45,15.9c3.56,4.37,8.3,7.78,14.23,10.23c5.93,2.44,13.41,3.67,22.45,3.67
		c7.11,0,13.12-0.59,18.01-1.78s9.34-2.59,13.34-4.22l-4.67-25.79C717.25,199.27,713.81,200.19,710.03,200.86z M825.52,135.16
		c1.63,5.93,2.45,12.53,2.45,19.79v68.92c-4.75,1.04-11.34,2.26-19.79,3.67c-8.45,1.41-18.67,2.11-30.68,2.11
		c-7.56,0-14.42-0.67-20.56-2c-6.15-1.33-11.45-3.52-15.9-6.56c-4.45-3.03-7.86-7-10.23-11.89c-2.37-4.89-3.56-10.89-3.56-18.01
		c0-6.82,1.37-12.6,4.11-17.34c2.74-4.74,6.41-8.52,11-11.34c4.59-2.81,9.85-4.85,15.79-6.11c5.93-1.26,12.08-1.89,18.45-1.89
		c4.3,0,8.11,0.19,11.45,0.56c3.33,0.37,6.04,0.85,8.11,1.44v-3.11c0-5.63-1.71-10.15-5.11-13.56c-3.41-3.41-9.34-5.11-17.79-5.11
		c-5.63,0-11.19,0.41-16.67,1.22c-5.48,0.82-10.23,1.96-14.23,3.44l-4.22-26.68c1.92-0.59,4.33-1.22,7.22-1.89
		c2.89-0.67,6.04-1.26,9.45-1.78c3.41-0.52,7-0.96,10.78-1.33c3.78-0.37,7.59-0.56,11.45-0.56c9.78,0,17.93,1.11,24.46,3.34
		c6.52,2.22,11.74,5.41,15.67,9.56C821.1,124.2,823.88,129.24,825.52,135.16z M796.17,178.07c-1.33-0.3-3.34-0.59-6-0.89
		c-2.67-0.29-5.11-0.44-7.34-0.44c-3.11,0-6.04,0.19-8.78,0.56c-2.74,0.37-5.15,1.08-7.22,2.11c-2.08,1.04-3.71,2.44-4.89,4.22
		c-1.19,1.78-1.78,4-1.78,6.67c0,5.19,1.74,8.78,5.23,10.78c3.48,2,8.26,3,14.34,3c3.26,0,6.37-0.07,9.34-0.22
		c2.96-0.15,5.34-0.37,7.11-0.67V178.07z M940.45,122.49c-3.86-4.74-9.08-8.41-15.67-11.01c-6.6-2.59-14.86-3.89-24.79-3.89
		c-9.78,0-19.12,0.71-28.01,2.11c-8.89,1.41-16.16,2.93-21.79,4.56V227.2h18.55c8.05,0,14.57-6.52,14.57-14.57v-75.69
		c2.07-0.3,4.45-0.56,7.11-0.78c2.67-0.22,5.18-0.33,7.56-0.33c7.7,0,12.97,2.22,15.78,6.67c2.81,4.45,4.23,12.01,4.23,22.68v62.03
		h18.55c8.05,0,14.57-6.52,14.57-14.57v-51.45c0-8-0.82-15.26-2.45-21.79C947.04,132.87,944.3,127.24,940.45,122.49z
		 M1045.16,198.08c-3.11,1.19-6.56,2.11-10.34,2.78c-3.78,0.67-7.45,1-11,1c-7.41,0-12.34-2.07-14.78-6.22
		c-2.45-4.15-3.67-9.7-3.67-16.67v-41.13h25.22c8.05,0,14.57-6.52,14.57-14.57v-12.99h-39.8V75.8l-33.12,5.34v98.26
		c0,7.56,0.7,14.45,2.11,20.67c1.41,6.22,3.89,11.53,7.45,15.9c3.56,4.37,8.3,7.78,14.23,10.23c5.93,2.44,13.41,3.67,22.45,3.67
		c7.11,0,13.12-0.59,18.01-1.78s9.34-2.59,13.34-4.22L1045.16,198.08z"/>
</g>
</svg>
