<?xml version="1.0" encoding="utf-8"?>
<!-- Generator: Adobe Illustrator 23.0.3, SVG Export Plug-In . SVG Version: 6.00 Build 0)  -->
<svg version="1.1" id="Logo_x26_slogan_1_" xmlns="http://www.w3.org/2000/svg" xmlns:xlink="http://www.w3.org/1999/xlink" x="0px"
	 y="0px" viewBox="0 0 1100 400" style="enable-background:new 0 0 1100 400;" xml:space="preserve">
<style type="text/css">
	.st0{fill:url(#SVGID_1_);}
	.st1{fill:#0075D7;}
	.st2{fill:url(#SVGID_2_);}
	.st3{fill:#0740BD;}
	.st4{fill:url(#SVGID_3_);}
	.st5{fill:#0617A3;}
	.st6{fill:url(#SVGID_4_);}
	.st7{fill:url(#SVGID_5_);}
	.st8{fill:url(#main_1_);}
	.st9{fill:#5D6DBA;}
	.st10{fill:#0A197D;}
</style>
<g>
	<g id="Background_3_">
		<g>
			
				<linearGradient id="SVGID_1_" gradientUnits="userSpaceOnUse" x1="199.8977" y1="48.2854" x2="199.8977" y2="125.4009" gradientTransform="matrix(1 0 0 1 0 42)">
				<stop  offset="0" style="stop-color:#0087E0"/>
				<stop  offset="1" style="stop-color:#4DC2F4"/>
			</linearGradient>
			<path class="st0" d="M86.1,103.4C69.4,113,59.1,130.8,59.1,150v11.2h281.6V150c0-19.2-10.3-36.9-26.9-46.5l-26.5-15.2H112.5
				L86.1,103.4z"/>
			<polygon class="st1" points="112.5,88.2 104.6,92.8 295.2,92.8 287.2,88.2 			"/>
		</g>
		<g>
			
				<linearGradient id="SVGID_2_" gradientUnits="userSpaceOnUse" x1="199.8869" y1="119.0739" x2="199.8869" y2="191.6413" gradientTransform="matrix(1 0 0 1 0 42)">
				<stop  offset="0" style="stop-color:#0146C0"/>
				<stop  offset="1" style="stop-color:#0079DD"/>
			</linearGradient>
			<rect x="59.1" y="161.2" class="st2" width="281.6" height="73"/>
			<rect x="59.1" y="161.2" class="st3" width="281.6" height="5.5"/>
		</g>
		<g>
			
				<linearGradient id="SVGID_3_" gradientUnits="userSpaceOnUse" x1="199.876" y1="193.5494" x2="199.876" y2="264.721" gradientTransform="matrix(1 0 0 1 0 42)">
				<stop  offset="0" style="stop-color:#0A38BA"/>
				<stop  offset="1" style="stop-color:#0067D1"/>
			</linearGradient>
			<path class="st4" d="M59.1,234.2V250c0,19.2,10.3,36.9,26.9,46.5l18.5,10.7h190.6l18.5-10.7c16.7-9.6,26.9-27.3,26.9-46.5v-15.8
				L59.1,234.2L59.1,234.2z"/>
			<rect x="59.1" y="234.2" class="st5" width="281.6" height="5.5"/>
		</g>
		<g>
			
				<linearGradient id="SVGID_4_" gradientUnits="userSpaceOnUse" x1="199.876" y1="268.7623" x2="199.876" y2="316.7827" gradientTransform="matrix(1 0 0 1 0 42)">
				<stop  offset="0" style="stop-color:#042EAE"/>
				<stop  offset="1" style="stop-color:#005DCE"/>
			</linearGradient>
			<path class="st6" d="M104.6,307.2l68.4,39.4c16.7,9.6,37.2,9.6,53.9,0l68.4-39.4H104.6L104.6,307.2z"/>
		</g>
		
			<linearGradient id="SVGID_5_" gradientUnits="userSpaceOnUse" x1="199.876" y1="5.5174" x2="199.876" y2="52.7615" gradientTransform="matrix(1 0 0 1 0 42)">
			<stop  offset="0" style="stop-color:#86E0F8"/>
			<stop  offset="1" style="stop-color:#58B9ED"/>
		</linearGradient>
		<path class="st7" d="M112.5,88.2h174.7l-60.4-34.8c-16.7-9.6-37.2-9.6-53.9,0L112.5,88.2z"/>
		<polygon class="st5" points="285.7,312.7 295.2,307.2 104.6,307.2 114.1,312.7 		"/>
	</g>
	<g>
		<g id="Outline-logo_3_">
			<path class="st5" d="M153.9,234.2v62.1v6.5h6.5H185c33.6,0,60.8-27.2,60.8-60.7v-7.9H153.9z"/>
			<rect x="153.9" y="161.2" class="st3" width="91.9" height="73"/>
			<path class="st1" d="M245.9,161.2v-57.6v-6.5h-6.5h-31.2c-29.9,0-54.2,24.2-54.2,54v10L245.9,161.2L245.9,161.2z"/>
		</g>
		
			<linearGradient id="main_1_" gradientUnits="userSpaceOnUse" x1="199.8923" y1="61.8646" x2="199.8923" y2="250.6339" gradientTransform="matrix(1 0 0 1 0 42)">
			<stop  offset="0" style="stop-color:#FFFFFF"/>
			<stop  offset="1" style="stop-color:#97EAFD"/>
		</linearGradient>
		<path id="main_3_" class="st8" d="M185,296.3h-24.6V151.2c0-26.3,21.4-47.6,47.7-47.6h31.2v138.5C239.3,272.1,215,296.3,185,296.3
			z"/>
	</g>
</g>
<g>
	<path id="slogan" class="st9" d="M433.7,264.6L414,293.2l19.7,32.3h-8.8l-19.6-32.3l19.6-28.6H433.7z M397,325.5h7.9v-60.9H397
		V325.5z M440.6,325.5h7.6v-42.6h-7.6V325.5z M440.6,273.2h7.6v-8.6h-7.6V273.2z M479.9,266.1h5.4l7.7-10.1h-8.2L479.9,266.1z
		 M485.2,286.7c3,3.2,4.5,7.6,4.5,13.2c0,1-0.1,2.3-0.3,4.1h-25.9c0.2,5,1.4,8.9,3.8,11.5c2.4,2.6,5.4,3.9,9.2,3.9
		c1.8,0,3.7-0.2,5.7-0.7s3.8-1.1,5.3-1.9l0.7,6.8c-3.2,1.7-7.3,2.6-12.2,2.6c-4.3,0-8-1-11-3c-3-2-5.3-4.7-6.9-8.1
		c-1.5-3.4-2.3-7.2-2.3-11.4c0-4,0.7-7.7,2.1-11c1.4-3.3,3.5-6,6.2-7.9c2.7-1.9,5.9-2.9,9.6-2.9C478.3,282,482.2,283.6,485.2,286.7z
		 M481.9,298.8c0-2.9-0.7-5.3-2.1-7.1c-1.4-1.8-3.5-2.7-6.1-2.7c-2.6,0-4.8,0.8-6.5,2.4c-1.7,1.6-2.9,4.1-3.4,7.4H481.9z
		 M483.9,278.2v-5.3l-10.2-7.1l-10.2,7.1v5.3l10.2-5.4L483.9,278.2z M514.6,282c-2.5,0-4.8,0.5-6.8,1.7c-2.1,1.1-3.7,2.6-4.9,4.5
		l-0.5-5.3h-6.4v42.6h7.6v-30.6c1.1-1.9,2.5-3.4,4.1-4.5c1.6-1.1,3.4-1.6,5.3-1.6c2.6,0,4.6,1.1,5.9,3.3c1.3,2.2,2,5.5,2,10v23.4
		h7.6v-24.4c0-5.9-1.2-10.5-3.5-14C522.4,283.7,519,282,514.6,282z M564,271.5l-7.6,0.8v10.5h-5.2l-0.7,6h5.9v27.3
		c0,2.8,0.8,5.2,2.4,7.2c1.6,2,4,3,7.4,3h6.3l0.7-6.2h-2.7c-2.4,0-4-0.5-5-1.6c-1-1-1.4-2.9-1.4-5.5v-24.3h9.2v-6H564L564,271.5
		L564,271.5z M610.2,320.2h1l-1,6.2h-1.7c-2.7,0-4.6-0.5-5.9-1.5c-1.3-1-2.3-2.6-3.1-4.8c-1.3,1.9-3,3.4-5,4.6
		c-2,1.1-4.1,1.7-6.4,1.7c-3.3,0-5.9-1.2-8-3.5c-2.1-2.3-3.1-5.3-3.1-8.9c0-5.3,2.2-9.2,6.7-11.5c4.5-2.4,9.5-3.6,15-3.7
		c0-3.7-0.5-6.3-1.7-7.7c-1.1-1.4-3-2.2-5.6-2.2c-3.4,0-6.8,1.3-10.3,3.9l-1-6.4c3.7-3,7.9-4.4,12.7-4.4c4.6,0,8,1.3,10.2,4
		c2.2,2.6,3.3,6.9,3.3,12.8v12.4c0,3.3,0.2,5.6,0.7,7C607.6,319.5,608.7,320.2,610.2,320.2z M598.7,304.2c-4.5,0.2-7.9,1.1-10.2,2.6
		c-2.3,1.5-3.5,3.8-3.5,6.8c0,4.4,1.8,6.6,5.5,6.6c1.4,0,2.8-0.5,4.3-1.6s2.8-2.5,3.8-4.2L598.7,304.2L598.7,304.2z M590,340.3h7.7
		v-7.7H590V340.3z M649.5,292.8c1.4,3.4,2.2,7.1,2.2,11.3s-0.7,8-2.2,11.3c-1.4,3.4-3.6,6-6.4,8c-2.8,1.9-6.1,2.9-9.8,2.9
		c-3.8,0-7.1-1-9.9-2.9c-2.8-1.9-4.9-4.6-6.4-8c-1.5-3.4-2.2-7.1-2.2-11.3s0.7-8,2.2-11.3c1.5-3.4,3.6-6,6.4-8
		c2.8-1.9,6.1-2.9,9.9-2.9c3.8,0,7.1,1,9.8,2.9C646,286.8,648.1,289.5,649.5,292.8z M644,304.2c0-4.9-0.9-8.7-2.8-11.4
		c-1.9-2.7-4.5-4-7.8-4c-3.5,0-6.2,1.4-8,4c-1.9,2.7-2.8,6.5-2.8,11.4c0,4.9,0.9,8.7,2.8,11.4c1.9,2.7,4.5,4,8,4
		c3.4,0,6-1.4,7.8-4.1C643.1,312.8,644,309,644,304.2z M685.7,271.5l-7.6,0.8v10.5h-5.2l-0.7,6h5.9v27.3c0,2.8,0.8,5.2,2.4,7.2
		c1.6,2,4,3,7.4,3h6.3l0.7-6.2h-2.7c-2.4,0-4-0.5-5-1.6c-1-1-1.4-2.9-1.4-5.5v-24.3h9.2v-6h-9.2L685.7,271.5L685.7,271.5z
		 M731.9,320.2h1l-1,6.2h-1.7c-2.7,0-4.6-0.5-5.9-1.5c-1.3-1-2.3-2.6-3.1-4.8c-1.3,1.9-3,3.4-5,4.6c-2,1.1-4.1,1.7-6.4,1.7
		c-3.3,0-5.9-1.2-8-3.5c-2.1-2.3-3.1-5.3-3.1-8.9c0-5.3,2.2-9.2,6.7-11.5c4.5-2.4,9.5-3.6,15-3.7c0-3.7-0.5-6.3-1.7-7.7
		c-1.1-1.4-3-2.2-5.6-2.2c-3.4,0-6.8,1.3-10.3,3.9l-1-6.4c3.7-3,7.9-4.4,12.7-4.4c4.6,0,8,1.3,10.2,4c2.2,2.6,3.3,6.9,3.3,12.8v12.4
		c0,3.3,0.2,5.6,0.7,7C729.3,319.5,730.3,320.2,731.9,320.2z M720.4,304.2c-4.5,0.2-7.9,1.1-10.2,2.6c-2.3,1.5-3.5,3.8-3.5,6.8
		c0,4.4,1.8,6.6,5.5,6.6c1.4,0,2.8-0.5,4.3-1.6s2.8-2.5,3.8-4.2L720.4,304.2L720.4,304.2z M715.5,275.4c3.8,0,6.8-1,8.8-3
		c2-2,3-4.5,3-7.5h-6.8c0,1.5-0.4,2.7-1.3,3.6c-0.8,0.9-2.1,1.3-3.8,1.3c-1.7,0-2.9-0.4-3.8-1.3c-0.8-0.9-1.3-2.1-1.3-3.6h-6.8
		c0,3,1,5.5,3,7.5C708.8,274.3,711.7,275.4,715.5,275.4z M757.5,282c-2.5,0-4.8,0.5-6.8,1.7c-2.1,1.1-3.7,2.6-4.9,4.5l-0.5-5.3h-6.4
		v42.6h7.6v-30.6c1.1-1.9,2.5-3.4,4.1-4.5c1.6-1.1,3.4-1.6,5.3-1.6c2.6,0,4.6,1.1,5.9,3.3c1.3,2.2,2,5.5,2,10v23.4h7.6v-24.4
		c0-5.9-1.2-10.5-3.5-14C765.2,283.7,761.9,282,757.5,282z M811,329.3c1,1.5,1.5,3.3,1.5,5.5c0,3.9-1.7,7-5.1,9.2
		c-3.4,2.2-7.9,3.3-13.4,3.3c-5,0-9.2-1-12.3-3.1c-3.2-2.1-4.7-4.9-4.7-8.5c0-4.1,2.3-7.7,6.8-10.8c-2.7-1.3-4-3.2-4-5.8
		c0-1.3,0.4-2.5,1.2-3.5c0.8-1,2-1.8,3.5-2.4c-2.1-1.5-3.8-3.5-5-6.1c-1.2-2.6-1.7-5.4-1.7-8.4c0-3.1,0.6-6,1.8-8.5
		c1.2-2.5,3-4.5,5.3-6c2.3-1.4,5-2.2,8-2.2c3.7,0,6.8,1,9.4,3.1c2.3-2.1,4.7-3.1,7.2-3.1c0.8,0,1.5,0.1,2.2,0.2l-0.8,6.1
		c-0.6-0.1-1.2-0.2-1.7-0.2c-1.2,0-2.4,0.3-3.7,0.8c1.7,2.7,2.5,6,2.5,9.7c0,3.1-0.6,6-1.8,8.6c-1.2,2.6-3,4.6-5.3,6.2
		c-2.3,1.5-5,2.3-8,2.3c-1.6,0-3.1-0.2-4.3-0.6c-1.1,0.5-1.7,1.1-1.7,2c0,0.8,0.4,1.4,1.1,1.8c0.8,0.4,2.1,0.9,4,1.5l6,1.8
		c3.6,1.1,6.4,2.2,8.5,3.3C808.5,326.5,810,327.8,811,329.3z M784.9,298.7c0,3.3,0.7,6,2.1,8c1.4,2,3.3,3,5.8,3c2.5,0,4.4-1,5.8-3
		s2.1-4.7,2.1-8c0-3.1-0.7-5.7-2.1-7.7s-3.3-3-5.8-3c-2.5,0-4.4,1-5.8,2.9C785.6,292.9,784.9,295.5,784.9,298.7z M804.8,335.2
		c0-1.6-0.6-2.8-1.7-3.7c-1.2-0.9-3.3-1.8-6.4-2.7l-7-2.1c-3.9,2.5-5.9,5.1-5.9,7.8c0,2.1,0.9,3.8,2.8,4.9c1.9,1.1,4.5,1.7,7.8,1.7
		c3.1,0,5.6-0.5,7.5-1.5C803.9,338.6,804.8,337.1,804.8,335.2z M843.8,271.5l-7.6,0.8v10.5H831l-0.7,6h5.9v27.3
		c0,2.8,0.8,5.2,2.4,7.2c1.6,2,4,3,7.4,3h6.3l0.7-6.2h-2.7c-2.4,0-4-0.5-5-1.6c-1-1-1.4-2.9-1.4-5.5v-24.3h9.2v-6h-9.2L843.8,271.5
		L843.8,271.5z M872.3,283.9c-1.7,1.3-3.5,3.3-5.4,6.1l-1-7.1h-6.2v42.6h7.6v-30.1c0.8-1.3,2-2.4,3.6-3.3c1.7-1,3.5-1.4,5.4-1.4
		c1,0,1.9,0.1,2.6,0.3l0.8-8.6c-0.6-0.2-1.2-0.3-2-0.3C875.8,282,874,282.6,872.3,283.9z M910.4,282.8h-2.2v30.7
		c-1,1.9-2.3,3.3-3.8,4.3s-3.2,1.6-5,1.6c-2.7,0-4.6-0.9-5.7-2.8c-1.1-1.9-1.7-4.7-1.7-8.6v-25.2h-7.6V309c0,5.6,1.1,9.9,3.3,12.8
		c2.2,3,5.5,4.5,10,4.5c2.4,0,4.6-0.5,6.5-1.6c2-1.1,3.5-2.6,4.7-4.5l0.5,5.2h6.4v-38c2.4-0.9,4.3-2.3,5.7-4.2
		c1.4-1.9,2.1-4.2,2.1-6.9h-7.1C916.5,280.7,914.5,282.8,910.4,282.8z M941,268.3c0.9,0,1.6,0.2,2.1,0.7c0.5,0.5,0.8,1.2,0.8,2.1
		s-0.2,1.8-0.7,2.6c-0.4,0.8-1.3,1.8-2.5,3.2l3,2.9c1.8-1.6,3.1-3.1,3.9-4.3c0.8-1.3,1.2-2.8,1.2-4.5c0-2.1-0.7-3.7-2-5
		c-1.4-1.2-3.1-1.8-5.3-1.8c-2.5,0-4.7,0.5-6.5,1.5l1.5,4.2C938.2,268.8,939.7,268.3,941,268.3z M959,293.9
		c1.2,3.1,1.8,6.6,1.8,10.3c0,4.2-0.7,8-2.2,11.3c-1.4,3.4-3.6,6-6.4,8c-2.8,1.9-6.1,2.9-9.8,2.9c-3.8,0-7.1-1-9.9-2.9
		c-2.8-1.9-4.9-4.6-6.4-8c-1.5-3.4-2.2-7.1-2.2-11.3s0.7-8,2.2-11.3c1.5-3.4,3.6-6,6.4-8c2.8-1.9,6.1-2.9,9.9-2.9
		c1.7,0,3.5,0.2,5.2,0.7c2.9-0.5,4.3-2.6,4.3-6.3h7.1c0,2.1-0.5,4-1.4,5.7c-0.9,1.7-2.2,3-3.8,4.1
		C956.1,288.2,957.8,290.8,959,293.9z M953,304.2c0-4.9-0.9-8.7-2.8-11.4c-1.9-2.7-4.5-4-7.8-4c-3.5,0-6.2,1.4-8,4
		c-1.9,2.7-2.8,6.5-2.8,11.4c0,4.9,0.9,8.7,2.8,11.4c1.9,2.7,4.5,4,8,4c3.4,0,6-1.4,7.8-4.1C952.1,312.8,953,309,953,304.2z
		 M985.9,282c-2.5,0-4.8,0.5-6.8,1.7c-2.1,1.1-3.7,2.6-4.9,4.5l-0.5-5.3h-6.4v42.6h7.6v-30.6c1.1-1.9,2.5-3.4,4.1-4.5
		c1.6-1.1,3.4-1.6,5.3-1.6c2.6,0,4.6,1.1,5.9,3.3c1.3,2.2,2,5.5,2,10v23.4h7.6v-24.4c0-5.9-1.2-10.5-3.5-14
		C993.7,283.7,990.3,282,985.9,282z M1040.9,334.8c0,3.9-1.7,7-5.1,9.2c-3.4,2.2-7.9,3.3-13.4,3.3c-5,0-9.2-1-12.3-3.1
		c-3.2-2.1-4.7-4.9-4.7-8.5c0-4.1,2.3-7.7,6.8-10.8c-2.7-1.3-4-3.2-4-5.8c0-1.3,0.4-2.5,1.2-3.5c0.8-1,2-1.8,3.5-2.4
		c-2.1-1.5-3.8-3.5-5-6.1c-1.2-2.6-1.7-5.4-1.7-8.4c0-3.1,0.6-6,1.8-8.5c1.2-2.5,3-4.5,5.3-6c2.3-1.4,5-2.2,8-2.2
		c3.7,0,6.8,1,9.4,3.1c2.3-2.1,4.7-3.1,7.2-3.1c0.8,0,1.5,0.1,2.2,0.2l-0.8,6.1c-0.6-0.1-1.2-0.2-1.7-0.2c-1.2,0-2.4,0.3-3.7,0.8
		c1.7,2.7,2.5,6,2.5,9.7c0,3.1-0.6,6-1.8,8.6c-1.2,2.6-3,4.6-5.3,6.2c-2.3,1.5-5,2.3-8,2.3c-1.6,0-3.1-0.2-4.3-0.6
		c-1.1,0.5-1.7,1.1-1.7,2c0,0.8,0.4,1.4,1.1,1.8c0.8,0.4,2.1,0.9,4,1.5l6,1.8c3.6,1.1,6.4,2.2,8.5,3.3c2.1,1.1,3.6,2.4,4.6,3.8
		C1040.4,330.7,1040.9,332.6,1040.9,334.8z M1013.3,298.7c0,3.3,0.7,6,2.1,8s3.3,3,5.8,3s4.4-1,5.8-3s2.1-4.7,2.1-8
		c0-3.1-0.7-5.7-2.1-7.7s-3.3-3-5.8-3s-4.4,1-5.8,2.9C1014,292.9,1013.3,295.5,1013.3,298.7z M1033.2,335.2c0-1.6-0.6-2.8-1.7-3.7
		c-1.2-0.9-3.3-1.8-6.4-2.7l-7-2.1c-3.9,2.5-5.9,5.1-5.9,7.8c0,2.1,0.9,3.8,2.8,4.9c1.9,1.1,4.5,1.7,7.8,1.7c3.1,0,5.6-0.5,7.5-1.5
		C1032.3,338.6,1033.2,337.1,1033.2,335.2z"/>
	<path id="instant-logo_3_" class="st10" d="M414.3,70.1h13v127.4c0,9.6-7.7,17.3-17.3,17.3h-13V87.4
		C397,77.9,404.8,70.1,414.3,70.1z M536.1,116.5c-3.6-4.5-8.5-7.9-14.7-10.3c-6.2-2.4-14-3.7-23.3-3.7c-9.2,0-18,0.7-26.3,2
		c-8.3,1.3-15.2,2.8-20.5,4.3v106.1h17.4c7.6,0,13.7-6.1,13.7-13.7V130c1.9-0.3,4.2-0.5,6.7-0.7c2.5-0.2,4.9-0.3,7.1-0.3
		c7.2,0,12.2,2.1,14.8,6.3c2.6,4.2,4,11.3,4,21.3v58.3h17.4c7.6,0,13.7-6.1,13.7-13.7v-48.3c0-7.5-0.8-14.3-2.3-20.5
		C542.3,126.2,539.8,120.9,536.1,116.5z M638.1,163.3c-2.6-2.8-6.1-5.5-10.5-8c-4.5-2.5-10.1-4.9-16.9-7.5c-3.3-1.3-6.1-2.4-8.2-3.5
		c-2.2-1.1-3.9-2-5.1-2.9c-1.2-0.9-2.1-1.8-2.5-2.8c-0.4-1-0.6-2.1-0.6-3.3c0-5.4,4.9-8.1,14.6-8.1c5.3,0,10.1,0.5,14.3,1.5
		c4.2,1,8.2,2.1,11.8,3.3l5.4-24.2c-3.6-1.4-8.5-2.7-14.6-3.9c-6.1-1.2-12.5-1.8-19.2-1.8c-13.4,0-23.9,3-31.5,9
		c-7.7,6-11.5,14.1-11.5,24.4c0,5.3,0.8,9.8,2.3,13.6c1.5,3.8,3.7,7,6.5,9.7c2.8,2.7,6.2,5.1,10.1,7c4,2,8.4,3.8,13.3,5.6
		c6.3,2.4,10.9,4.5,14,6.4c3.1,1.9,4.6,4.1,4.6,6.6c0,3.2-1.2,5.4-3.6,6.5c-2.4,1.1-6.4,1.7-12.1,1.7c-5.4,0-10.9-0.6-16.5-1.8
		c-5.6-1.2-11-2.8-16.3-4.9l-5.2,25.3c2.5,1.1,7,2.5,13.5,4.2c6.5,1.7,14.6,2.5,24.3,2.5c14.9,0,26.4-2.8,34.6-8.3
		c8.1-5.6,12.2-13.8,12.2-24.6c0-4.6-0.5-8.6-1.6-12.1C642.5,169.3,640.7,166.1,638.1,163.3z M718.7,190.1c-3.6,0.6-7,0.9-10.3,0.9
		c-7,0-11.6-1.9-13.9-5.8c-2.3-3.9-3.4-9.1-3.4-15.7v-38.6h23.7c7.6,0,13.7-6.1,13.7-13.7V105h-37.4V72.6l-31.1,5v92.3
		c0,7.1,0.7,13.6,2,19.4c1.3,5.8,3.7,10.8,7,14.9c3.3,4.1,7.8,7.3,13.4,9.6c5.6,2.3,12.6,3.4,21.1,3.4c6.7,0,12.3-0.6,16.9-1.7
		c4.6-1.1,8.8-2.4,12.5-4l-4.4-24.2C725.5,188.6,722.3,189.4,718.7,190.1z M827.2,128.4c1.5,5.6,2.3,11.8,2.3,18.6v64.7
		c-4.5,1-10.7,2.1-18.6,3.4c-7.9,1.3-17.5,2-28.8,2c-7.1,0-13.5-0.6-19.3-1.9c-5.8-1.2-10.8-3.3-14.9-6.2c-4.2-2.8-7.4-6.6-9.6-11.2
		s-3.3-10.2-3.3-16.9c0-6.4,1.3-11.8,3.9-16.3c2.6-4.5,6-8,10.3-10.7c4.3-2.6,9.3-4.6,14.8-5.7c5.6-1.2,11.3-1.8,17.3-1.8
		c4,0,7.6,0.2,10.8,0.5c3.1,0.3,5.7,0.8,7.6,1.4v-2.9c0-5.3-1.6-9.5-4.8-12.7c-3.2-3.2-8.8-4.8-16.7-4.8c-5.3,0-10.5,0.4-15.7,1.1
		c-5.1,0.8-9.6,1.8-13.4,3.2l-4-25.1c1.8-0.6,4.1-1.1,6.8-1.8s5.7-1.2,8.9-1.7c3.2-0.5,6.6-0.9,10.1-1.2c3.6-0.3,7.1-0.5,10.8-0.5
		c9.2,0,16.8,1,23,3.1c6.1,2.1,11,5.1,14.7,9C823.1,118.1,825.7,122.8,827.2,128.4z M799.7,168.7c-1.2-0.3-3.1-0.6-5.6-0.8
		c-2.5-0.3-4.8-0.4-6.9-0.4c-2.9,0-5.7,0.2-8.2,0.5c-2.6,0.3-4.8,1-6.8,2c-2,1-3.5,2.3-4.6,4c-1.1,1.7-1.7,3.8-1.7,6.3
		c0,4.9,1.6,8.2,4.9,10.1c3.3,1.9,7.8,2.8,13.5,2.8c3.1,0,6-0.1,8.8-0.2c2.8-0.1,5-0.3,6.7-0.6L799.7,168.7L799.7,168.7z
		 M935.2,116.5c-3.6-4.5-8.5-7.9-14.7-10.3c-6.2-2.4-14-3.7-23.3-3.7c-9.2,0-18,0.7-26.3,2c-8.3,1.3-15.2,2.8-20.5,4.3v106.1h17.4
		c7.6,0,13.7-6.1,13.7-13.7V130c1.9-0.3,4.2-0.5,6.7-0.7c2.5-0.2,4.9-0.3,7.1-0.3c7.2,0,12.2,2.1,14.8,6.3c2.6,4.2,4,11.3,4,21.3
		v58.3h17.4c7.6,0,13.7-6.1,13.7-13.7v-48.3c0-7.5-0.8-14.3-2.3-20.5C941.4,126.2,938.8,120.9,935.2,116.5z M1033.5,187.5
		c-2.9,1.1-6.2,2-9.7,2.6c-3.6,0.6-7,0.9-10.3,0.9c-7,0-11.6-1.9-13.9-5.8c-2.3-3.9-3.4-9.1-3.4-15.7v-38.6h23.7
		c7.6,0,13.7-6.1,13.7-13.7V105h-37.4V72.6l-31.1,5v92.3c0,7.1,0.7,13.6,2,19.4c1.3,5.8,3.7,10.8,7,14.9c3.3,4.1,7.8,7.3,13.4,9.6
		c5.6,2.3,12.6,3.4,21.1,3.4c6.7,0,12.3-0.6,16.9-1.7c4.6-1.1,8.8-2.4,12.5-4L1033.5,187.5z"/>
</g>
</svg>
